{
    "asset" : {
        "generator" : "Khronos glTF Blender I/O v1.6.16",
        "version" : "2.0"
    },
    "scene" : 0,
    "scenes" : [
        {
            "name" : "Scene",
            "nodes" : [
                0
            ]
        }
    ],
    "nodes" : [
        {
            "mesh" : 0,
            "name" : "Toilet",
            "scale" : [
                1,
                1.000003457069397,
                1
            ]
        }
    ],
    "materials" : [
        {
            "doubleSided" : true,
            "name" : "m_1",
            "pbrMetallicRoughness" : {
                "baseColorFactor" : [
                    0.800000011920929,
                    0.800000011920929,
                    0.800000011920929,
                    1
                ],
                "metallicFactor" : 0,
                "roughnessFactor" : 0.5
            }
        },
        {
            "doubleSided" : true,
            "name" : "m_2",
            "pbrMetallicRoughness" : {
                "baseColorFactor" : [
                    0.800000011920929,
                    0.800000011920929,
                    0.800000011920929,
                    1
                ],
                "metallicFactor" : 0,
                "roughnessFactor" : 0.5
            }
        },
        {
            "doubleSided" : true,
            "name" : "m_3",
            "pbrMetallicRoughness" : {
                "baseColorFactor" : [
                    0.800000011920929,
                    0.800000011920929,
                    0.800000011920929,
                    1
                ],
                "metallicFactor" : 0,
                "roughnessFactor" : 0.5
            }
        }
    ],
    "meshes" : [
        {
            "name" : "Toilet",
            "primitives" : [
                {
                    "attributes" : {
                        "POSITION" : 0,
                        "NORMAL" : 1,
                        "TEXCOORD_0" : 2
                    },
                    "indices" : 3,
                    "material" : 0
                },
                {
                    "attributes" : {
                        "POSITION" : 4,
                        "NORMAL" : 5,
                        "TEXCOORD_0" : 6
                    },
                    "indices" : 7,
                    "material" : 1
                },
                {
                    "attributes" : {
                        "POSITION" : 8,
                        "NORMAL" : 9,
                        "TEXCOORD_0" : 10
                    },
                    "indices" : 11,
                    "material" : 2
                }
            ]
        }
    ],
    "accessors" : [
        {
            "bufferView" : 0,
            "componentType" : 5126,
            "count" : 17301,
            "max" : [
                6.168982982635498,
                4.89762544631958,
                3.045020818710327
            ],
            "min" : [
                -4.2418131828308105,
                -5.630739212036133,
                -3.5648396015167236
            ],
            "type" : "VEC3"
        },
        {
            "bufferView" : 1,
            "componentType" : 5126,
            "count" : 17301,
            "type" : "VEC3"
        },
        {
            "bufferView" : 2,
            "componentType" : 5126,
            "count" : 17301,
            "type" : "VEC2"
        },
        {
            "bufferView" : 3,
            "componentType" : 5123,
            "count" : 97506,
            "type" : "SCALAR"
        },
        {
            "bufferView" : 4,
            "componentType" : 5126,
            "count" : 12938,
            "max" : [
                5.956788063049316,
                1.4454898834228516,
                2.523010492324829
            ],
            "min" : [
                -1.01561439037323,
                0.5068473815917969,
                -3.0321173667907715
            ],
            "type" : "VEC3"
        },
        {
            "bufferView" : 5,
            "componentType" : 5126,
            "count" : 12938,
            "type" : "VEC3"
        },
        {
            "bufferView" : 6,
            "componentType" : 5126,
            "count" : 12938,
            "type" : "VEC2"
        },
        {
            "bufferView" : 7,
            "componentType" : 5123,
            "count" : 75888,
            "type" : "SCALAR"
        },
        {
            "bufferView" : 8,
            "componentType" : 5126,
            "count" : 3712,
            "max" : [
                -1.6659036874771118,
                3.99751615524292,
                2.69826340675354
            ],
            "min" : [
                -1.9469891786575317,
                3.552987575531006,
                1.7739670276641846
            ],
            "type" : "VEC3"
        },
        {
            "bufferView" : 9,
            "componentType" : 5126,
            "count" : 3712,
            "type" : "VEC3"
        },
        {
            "bufferView" : 10,
            "componentType" : 5126,
            "count" : 3712,
            "type" : "VEC2"
        },
        {
            "bufferView" : 11,
            "componentType" : 5123,
            "count" : 21120,
            "type" : "SCALAR"
        }
    ],
    "bufferViews" : [
        {
            "buffer" : 0,
            "byteLength" : 207612,
            "byteOffset" : 0
        },
        {
            "buffer" : 0,
            "byteLength" : 207612,
            "byteOffset" : 207612
        },
        {
            "buffer" : 0,
            "byteLength" : 138408,
            "byteOffset" : 415224
        },
        {
            "buffer" : 0,
            "byteLength" : 195012,
            "byteOffset" : 553632
        },
        {
            "buffer" : 0,
            "byteLength" : 155256,
            "byteOffset" : 748644
        },
        {
            "buffer" : 0,
            "byteLength" : 155256,
            "byteOffset" : 903900
        },
        {
            "buffer" : 0,
            "byteLength" : 103504,
            "byteOffset" : 1059156
        },
        {
            "buffer" : 0,
            "byteLength" : 151776,
            "byteOffset" : 1162660
        },
        {
            "buffer" : 0,
            "byteLength" : 44544,
            "byteOffset" : 1314436
        },
        {
            "buffer" : 0,
            "byteLength" : 44544,
            "byteOffset" : 1358980
        },
        {
            "buffer" : 0,
            "byteLength" : 29696,
            "byteOffset" : 1403524
        },
        {
            "buffer" : 0,
            "byteLength" : 42240,
            "byteOffset" : 1433220
        }
    ],
    "buffers" : [
        {
            "byteLength" : 1475460,
            "uri" : "data:application/octet-stream;base64,"
        }
    ]
}
