{
    "asset" : {
        "generator" : "Khronos glTF Blender I/O v1.6.16",
        "version" : "2.0"
    },
    "scene" : 0,
    "scenes" : [
        {
            "name" : "Scene",
            "nodes" : [
                0
            ]
        }
    ],
    "nodes" : [
        {
            "mesh" : 0,
            "name" : "Basin",
            "scale" : [
                7.812499523162842,
                1.5624998807907104,
                4.687499523162842
            ],
            "translation" : [
                -0.3099994659423828,
                -9.037724494934082,
                -14.678413391113281
            ]
        }
    ],
    "materials" : [
        {
            "doubleSided" : true,
            "emissiveFactor" : [
                1,
                1,
                1
            ],
            "name" : "WastafelMT",
            "pbrMetallicRoughness" : {
                "baseColorFactor" : [
                    0.6755900979042053,
                    0.8000000715255737,
                    0.7434042692184448,
                    1
                ],
                "metallicFactor" : 0,
                "roughnessFactor" : 0
            }
        },
        {
            "doubleSided" : true,
            "name" : "Material.002",
            "pbrMetallicRoughness" : {}
        },
        {
            "doubleSided" : true,
            "name" : "Valve",
            "pbrMetallicRoughness" : {}
        }
    ],
    "meshes" : [
        {
            "name" : "Cube.006",
            "primitives" : [
                {
                    "attributes" : {
                        "POSITION" : 0,
                        "NORMAL" : 1,
                        "TEXCOORD_0" : 2,
                        "TEXCOORD_1" : 3,
                        "TEXCOORD_2" : 4
                    },
                    "indices" : 5,
                    "material" : 0
                },
                {
                    "attributes" : {
                        "POSITION" : 6,
                        "NORMAL" : 7,
                        "TEXCOORD_0" : 8,
                        "TEXCOORD_1" : 9,
                        "TEXCOORD_2" : 10
                    },
                    "indices" : 11,
                    "material" : 1
                },
                {
                    "attributes" : {
                        "POSITION" : 12,
                        "NORMAL" : 13,
                        "TEXCOORD_0" : 14,
                        "TEXCOORD_1" : 15,
                        "TEXCOORD_2" : 16
                    },
                    "indices" : 17,
                    "material" : 2
                }
            ]
        }
    ],
    "accessors" : [
        {
            "bufferView" : 0,
            "componentType" : 5126,
            "count" : 2668,
            "max" : [
                1,
                1.0000001192092896,
                1.3354520797729492
            ],
            "min" : [
                -1,
                -4.370583534240723,
                -1
            ],
            "type" : "VEC3"
        },
        {
            "bufferView" : 1,
            "componentType" : 5126,
            "count" : 2668,
            "type" : "VEC3"
        },
        {
            "bufferView" : 2,
            "componentType" : 5126,
            "count" : 2668,
            "type" : "VEC2"
        },
        {
            "bufferView" : 3,
            "componentType" : 5126,
            "count" : 2668,
            "type" : "VEC2"
        },
        {
            "bufferView" : 4,
            "componentType" : 5126,
            "count" : 2668,
            "type" : "VEC2"
        },
        {
            "bufferView" : 5,
            "componentType" : 5123,
            "count" : 5124,
            "type" : "SCALAR"
        },
        {
            "bufferView" : 6,
            "componentType" : 5126,
            "count" : 2784,
            "max" : [
                0.09679999947547913,
                -0.6329466700553894,
                0.5435354709625244
            ],
            "min" : [
                -0.09680002927780151,
                -1.1620783805847168,
                0.2208687961101532
            ],
            "type" : "VEC3"
        },
        {
            "bufferView" : 7,
            "componentType" : 5126,
            "count" : 2784,
            "type" : "VEC3"
        },
        {
            "bufferView" : 8,
            "componentType" : 5126,
            "count" : 2784,
            "type" : "VEC2"
        },
        {
            "bufferView" : 9,
            "componentType" : 5126,
            "count" : 2784,
            "type" : "VEC2"
        },
        {
            "bufferView" : 10,
            "componentType" : 5126,
            "count" : 2784,
            "type" : "VEC2"
        },
        {
            "bufferView" : 11,
            "componentType" : 5123,
            "count" : 6810,
            "type" : "SCALAR"
        },
        {
            "bufferView" : 12,
            "componentType" : 5126,
            "count" : 4508,
            "max" : [
                0.0777389407157898,
                4.704469680786133,
                0.874717652797699
            ],
            "min" : [
                -0.0777389258146286,
                0.8880717754364014,
                0.09754830598831177
            ],
            "type" : "VEC3"
        },
        {
            "bufferView" : 13,
            "componentType" : 5126,
            "count" : 4508,
            "type" : "VEC3"
        },
        {
            "bufferView" : 14,
            "componentType" : 5126,
            "count" : 4508,
            "type" : "VEC2"
        },
        {
            "bufferView" : 15,
            "componentType" : 5126,
            "count" : 4508,
            "type" : "VEC2"
        },
        {
            "bufferView" : 16,
            "componentType" : 5126,
            "count" : 4508,
            "type" : "VEC2"
        },
        {
            "bufferView" : 17,
            "componentType" : 5123,
            "count" : 7920,
            "type" : "SCALAR"
        }
    ],
    "bufferViews" : [
        {
            "buffer" : 0,
            "byteLength" : 32016,
            "byteOffset" : 0
        },
        {
            "buffer" : 0,
            "byteLength" : 32016,
            "byteOffset" : 32016
        },
        {
            "buffer" : 0,
            "byteLength" : 21344,
            "byteOffset" : 64032
        },
        {
            "buffer" : 0,
            "byteLength" : 21344,
            "byteOffset" : 85376
        },
        {
            "buffer" : 0,
            "byteLength" : 21344,
            "byteOffset" : 106720
        },
        {
            "buffer" : 0,
            "byteLength" : 10248,
            "byteOffset" : 128064
        },
        {
            "buffer" : 0,
            "byteLength" : 33408,
            "byteOffset" : 138312
        },
        {
            "buffer" : 0,
            "byteLength" : 33408,
            "byteOffset" : 171720
        },
        {
            "buffer" : 0,
            "byteLength" : 22272,
            "byteOffset" : 205128
        },
        {
            "buffer" : 0,
            "byteLength" : 22272,
            "byteOffset" : 227400
        },
        {
            "buffer" : 0,
            "byteLength" : 22272,
            "byteOffset" : 249672
        },
        {
            "buffer" : 0,
            "byteLength" : 13620,
            "byteOffset" : 271944
        },
        {
            "buffer" : 0,
            "byteLength" : 54096,
            "byteOffset" : 285564
        },
        {
            "buffer" : 0,
            "byteLength" : 54096,
            "byteOffset" : 339660
        },
        {
            "buffer" : 0,
            "byteLength" : 36064,
            "byteOffset" : 393756
        },
        {
            "buffer" : 0,
            "byteLength" : 36064,
            "byteOffset" : 429820
        },
        {
            "buffer" : 0,
            "byteLength" : 36064,
            "byteOffset" : 465884
        },
        {
            "buffer" : 0,
            "byteLength" : 15840,
            "byteOffset" : 501948
        }
    ],
    "buffers" : [
        {
            "byteLength" : 517788,
            "uri" : "data:application/octet-stream;base64,"
        }
    ]
}
